<svg xmlns="http://www.w3.org/2000/svg" viewBox="0 0 19 26.21"><defs><style>.cls-1{fill:#010101;}</style></defs><title>Asset 1</title><g id="Layer_2" data-name="Layer 2"><g id="Layer_1-2" data-name="Layer 1"><path class="cls-1" d="M19,9.5h0a9.49,9.49,0,0,0-4.72-8.19l-.06,0a9.44,9.44,0,0,0-9.44,0l-.06,0A9.49,9.49,0,0,0,0,9.5H0a9.5,9.5,0,0,0,4.71,8.19l.07,0A9.4,9.4,0,0,0,9,19v2.85H6.13a.5.5,0,1,0,0,1H9v2.88a.5.5,0,0,0,.5.5h0a.5.5,0,0,0,.5-.5V22.83h2.86a.5.5,0,0,0,.5-.5.5.5,0,0,0-.5-.5H10V19a9.33,9.33,0,0,0,4.18-1.23l.05,0A9.52,9.52,0,0,0,19,9.5Zm-1-.33-4.71,1.95,1.12-8.56A8.45,8.45,0,0,1,18,9.17Zm-8.92,3.7-2.7-2.08L6.8,7.43l3.14-1.3,2.7,2.08-.44,3.36ZM9.5,18a8.5,8.5,0,0,1-4-1l.67-5.08L8.7,13.86h0l4.36,3.34A8.41,8.41,0,0,1,9.5,18Zm4-16-.67,5.08L5.93,1.8A8.41,8.41,0,0,1,9.5,1,8.5,8.5,0,0,1,13.46,2ZM5,2.32,9,5.43,1,8.74A8.48,8.48,0,0,1,5,2.32ZM1,9.83l4.71-2L4.61,16.44A8.45,8.45,0,0,1,1,9.83Zm13,6.85L10,13.57l2.86-1.18h0L18,10.26A8.48,8.48,0,0,1,14,16.68Z"/></g></g></svg>