<svg xmlns="http://www.w3.org/2000/svg" width="213" height="99" viewBox="0 0 213 99">
  <g id="Group_1" data-name="Group 1" transform="translate(-116 -26)">
    <text id="artist_name" data-name="artist name" transform="translate(265 67)" font-size="25" font-family="Avenir-Black, Avenir" font-weight="800"><tspan x="-63.15" y="0">DOROTHY</tspan><tspan x="-54.387" y="34">DELONG</tspan></text>
    <g id="logo_layer" data-name="logo layer" transform="translate(116 25.955)">
      <g id="Layer_1" data-name="Layer 1" transform="translate(0 0.045)">
        <path id="Path_1" data-name="Path 1" d="M71.836,35.792h0A35.88,35.88,0,0,0,53.99,4.827h-.227a35.691,35.691,0,0,0-35.691,0h-.227A35.88,35.88,0,0,0,0,35.792H0A35.918,35.918,0,0,0,17.808,66.757h.265A35.54,35.54,0,0,0,34.027,71.71V82.485H23.176a1.89,1.89,0,0,0,0,3.781H34.027V97.155a1.89,1.89,0,0,0,1.89,1.89h0a1.89,1.89,0,0,0,1.89-1.89V86.19H48.621a1.89,1.89,0,1,0,0-3.781H37.808V71.71a35.275,35.275,0,0,0,15.8-4.65H53.8A35.994,35.994,0,0,0,71.836,35.792Zm-3.781-1.248L50.247,41.917,54.482,9.553A31.948,31.948,0,0,1,68.055,34.544ZM34.33,48.533,24.122,40.669l1.588-12.7,11.872-4.915L47.79,30.915l-1.664,12.7Zm1.588,19.4a32.137,32.137,0,0,1-15.123-3.781l2.533-19.207,9.566,7.335h0L49.378,64.9A31.8,31.8,0,0,1,35.918,67.929ZM51.041,7.436,48.508,26.642,22.42,6.68a31.8,31.8,0,0,1,13.5-3.025A32.137,32.137,0,0,1,50.89,7.436ZM18.9,8.646,34.027,20.4,3.781,32.919A32.061,32.061,0,0,1,18.9,8.646ZM3.781,37.04l17.808-7.562L17.43,62.031A31.948,31.948,0,0,1,3.781,37.04Zm49.151,25.9L37.808,51.18l10.813-4.461h0l19.433-8.053A32.061,32.061,0,0,1,52.932,62.938Z" transform="translate(0 -0.045)"/>
      </g>
    </g>
  </g>
</svg>
